<svg width="1440" height="692" viewBox="0 0 1440 692" fill="none" xmlns="http://www.w3.org/2000/svg">
<g clip-path="url(#clip0_1_254)">
<path opacity="0.0144928" d="M254.258 551.96L158.851 418.279C155.419 413.47 154.677 407.366 156.808 401.466L233.58 188.891C235.398 183.858 239.176 179.341 244.222 176.167L436.615 55.1387C443.978 50.5065 453.139 49.2876 460.759 51.9263L617.192 106.099C624.812 108.738 629.777 114.849 630.278 122.205L643.38 314.397C643.724 319.438 641.936 324.644 638.343 329.062L486.613 515.679C482.402 520.858 476.074 524.514 469.183 525.748L277.62 560.05C268.107 561.754 258.996 558.598 254.258 551.96Z" stroke="url(#paint0_linear_1_254)" stroke-opacity="0.1" stroke-width="4"/>
<path opacity="0.0289855" d="M285.572 558.79L181.652 430.07C177.872 425.39 176.718 419.238 178.477 413.15L239.982 200.234C241.5 194.98 245.075 190.168 250.028 186.713L432.425 59.476C439.445 54.5789 448.38 52.9874 456.029 55.2713L615.381 102.849C623.03 105.133 628.301 110.966 629.305 118.259L655.393 307.744C656.102 312.89 654.62 318.326 651.227 323.021L513.768 513.259C509.837 518.699 503.688 522.669 496.853 524.181L308.89 565.752C299.7 567.785 290.654 565.084 285.572 558.79Z" stroke="url(#paint1_linear_1_254)" stroke-opacity="0.1" stroke-width="4"/>
<path opacity="0.0434783" d="M316.959 564.807L204.951 441.397C200.834 436.862 199.26 430.689 200.625 424.436L247.037 211.799C248.228 206.344 251.565 201.252 256.393 197.522L428.501 64.5448C435.163 59.3977 443.859 57.45 451.527 59.3879L613.283 100.268C620.951 102.205 626.514 107.757 628.014 114.967L666.763 301.233C667.85 306.458 666.701 312.103 663.543 317.06L540.403 510.307C536.781 515.99 530.843 520.264 524.086 522.051L340.209 570.683C331.339 573.029 322.362 570.761 316.959 564.807Z" stroke="url(#paint2_linear_1_254)" stroke-opacity="0.1" stroke-width="4"/>
<path opacity="0.057971" d="M348.354 570.017L228.71 452.243C224.269 447.871 222.269 441.704 223.221 435.313L254.756 223.55C255.594 217.921 258.658 212.568 263.328 208.572L424.892 70.3272C431.182 64.945 439.631 62.657 447.308 64.257L610.943 98.3611C618.62 99.9611 624.467 105.228 626.454 112.335L677.505 294.892C678.98 300.169 678.192 305.996 675.3 311.197L566.482 506.853C563.198 512.758 557.502 517.321 550.845 519.38L371.522 574.845C362.969 577.491 354.061 575.635 348.354 570.017Z" stroke="url(#paint3_linear_1_254)" stroke-opacity="0.1" stroke-width="4"/>
<path opacity="0.0724638" d="M379.694 574.428L252.892 462.595C248.139 458.403 245.711 452.268 246.234 445.77L263.143 235.452C263.607 229.679 266.363 224.089 270.842 219.841L421.643 76.804C427.549 71.201 435.745 68.5874 443.424 69.857L608.407 97.133C616.086 98.403 622.206 103.384 624.673 110.37L687.638 288.749C689.508 294.047 689.103 300.025 686.508 305.447L591.974 502.931C589.054 509.033 583.628 513.869 577.094 516.195L402.774 578.244C394.532 581.177 385.69 579.715 379.694 574.428Z" stroke="url(#paint4_linear_1_254)" stroke-opacity="0.1" stroke-width="4"/>
<path opacity="0.0869565" d="M410.923 578.052L277.459 472.439C272.41 468.443 269.555 462.371 269.636 455.797L272.202 247.47C272.274 241.586 274.694 235.79 278.948 231.307L418.801 83.952C424.313 78.145 432.251 75.218 439.927 76.164L605.723 96.589C613.398 97.534 619.785 102.225 622.72 109.074L697.185 282.831C699.451 288.117 699.449 294.211 697.18 299.824L616.854 498.572C614.319 504.844 609.192 509.933 602.802 512.519L433.911 580.884C425.975 584.096 417.194 583.014 410.923 578.052Z" stroke="url(#paint5_linear_1_254)" stroke-opacity="0.1" stroke-width="4"/>
<path opacity="0.101449" d="M441.98 580.904L302.374 481.767C297.043 477.982 293.767 472.002 293.398 465.385L281.932 259.569C281.601 253.613 283.655 247.644 287.655 242.948L416.412 91.7509C421.52 85.7529 429.196 82.5259 436.864 83.1519L602.937 96.7289C610.605 97.3559 617.25 101.754 620.644 108.447L706.171 277.162C708.828 282.403 709.243 288.573 707.326 294.345L641.095 493.81C638.966 500.222 634.162 505.542 627.937 508.383L464.882 582.776C457.246 586.26 448.518 585.547 441.98 580.904Z" stroke="url(#paint6_linear_1_254)" stroke-opacity="0.1" stroke-width="4"/>
<path opacity="0.115942" d="M472.809 583.002L327.597 490.57C322.003 487.009 318.312 481.15 317.491 474.526L292.331 271.717C291.588 265.728 293.256 259.626 296.972 254.739L414.516 100.174C419.212 93.999 426.623 90.482 434.281 90.794L600.097 97.5541C607.754 97.8661 614.652 101.966 618.493 108.489L714.621 271.764C717.661 276.926 718.499 283.13 716.956 289.026L664.678 488.678C662.971 495.199 658.513 500.727 652.472 503.813L495.633 583.932C488.29 587.683 479.607 587.329 472.809 583.002Z" stroke="url(#paint7_linear_1_254)" stroke-opacity="0.1" stroke-width="4"/>
<path opacity="0.130435" d="M503.359 584.365L353.091 498.839C347.253 495.516 343.159 489.807 341.885 483.211L303.391 283.883C302.236 277.901 303.5 271.706 306.908 266.657L413.156 109.195C417.432 102.858 424.577 99.0601 432.222 99.0601H597.25C604.894 99.0601 612.039 102.858 616.315 109.195L722.564 266.657C725.971 271.706 727.236 277.901 726.081 283.883L687.586 483.211C686.312 489.807 682.219 495.516 676.38 498.839L526.113 584.365C519.059 588.38 510.412 588.38 503.359 584.365Z" stroke="url(#paint8_linear_1_254)" stroke-opacity="0.1" stroke-width="4"/>
<path opacity="0.144928" d="M533.574 585.016L378.816 506.57C372.753 503.497 368.271 497.966 366.551 491.433L315.102 296.037C313.54 290.105 314.391 283.86 317.468 278.676L412.368 118.786C416.217 112.301 423.094 108.229 430.724 107.918L594.441 101.244C602.07 100.933 609.457 104.424 614.157 110.56L730.024 261.859C733.78 266.764 735.466 272.906 734.71 278.932L709.802 477.441C708.969 484.078 705.255 489.943 699.638 493.493L556.27 584.091C549.501 588.369 540.881 588.72 533.574 585.016Z" stroke="url(#paint9_linear_1_254)" stroke-opacity="0.1" stroke-width="4"/>
<path opacity="0.15942" d="M563.408 584.981L404.735 513.759C398.466 510.945 393.615 505.62 391.459 499.185L327.455 308.153C325.497 302.311 325.931 296.059 328.659 290.771L412.187 128.917C415.603 122.298 422.211 117.959 429.824 117.337L591.718 104.101C599.33 103.479 606.953 106.655 612.064 112.577L737.031 257.386C741.113 262.117 743.209 268.163 742.856 274.194L731.314 471.401C730.925 478.045 727.604 484.038 722.224 487.804L586.055 583.129C579.569 587.67 570.966 588.373 563.408 584.981Z" stroke="url(#paint10_linear_1_254)" stroke-opacity="0.1" stroke-width="4"/>
<path opacity="0.173913" d="M592.815 584.284L430.808 520.402C424.354 517.858 419.156 512.764 416.578 506.458L340.436 320.206C338.101 314.492 338.119 308.274 340.487 302.914L412.649 139.556C415.626 132.817 421.963 128.216 429.555 127.281L589.127 107.623C596.719 106.688 604.573 109.54 610.082 115.234L743.613 253.252C747.995 257.781 750.482 263.69 750.531 269.685L752.112 465.123C752.166 471.739 749.246 477.833 744.119 481.805L615.421 581.499C609.217 586.304 600.624 587.363 592.815 584.284Z" stroke="url(#paint11_linear_1_254)" stroke-opacity="0.1" stroke-width="4"/>
<path opacity="0.188406" d="M621.749 582.955L456.996 526.5C450.379 524.233 444.858 519.394 441.877 513.249L354.034 332.173C351.342 326.623 350.953 320.48 352.952 315.078L413.784 150.673C416.317 143.828 422.379 138.969 429.948 137.718L586.713 111.8C594.282 110.549 602.36 113.07 608.253 118.521L749.799 249.468C754.45 253.771 757.306 259.505 757.749 265.427L772.19 458.639C772.68 465.195 770.166 471.363 765.307 475.527L644.32 579.223C638.4 584.297 629.81 585.717 621.749 582.955Z" stroke="url(#paint12_linear_1_254)" stroke-opacity="0.1" stroke-width="4"/>
<path opacity="0.202899" d="M650.172 581.024L483.263 532.052C476.505 530.069 470.687 525.505 467.324 519.549L368.235 344.032C365.212 338.677 364.43 332.648 366.056 327.234L415.621 162.231C417.705 155.295 423.489 150.182 431.03 148.61L584.522 116.621C592.062 115.049 600.359 117.227 606.621 122.424L755.615 246.045C760.503 250.1 763.702 255.627 764.526 261.44L791.54 451.978C792.457 458.444 790.352 464.659 785.775 469.004L672.708 576.327C667.077 581.672 658.484 583.463 650.172 581.024Z" stroke="url(#paint13_linear_1_254)" stroke-opacity="0.1" stroke-width="4"/>
<path opacity="0.217391" d="M678.046 578.523L509.569 537.061C502.693 535.369 496.607 531.098 492.887 525.356L383.026 355.765C379.701 350.633 378.544 344.749 379.798 339.354L418.186 174.197C419.816 167.185 425.317 161.821 432.824 159.924L582.598 122.072C590.105 120.175 598.609 122 605.226 126.927L761.09 242.991C766.182 246.783 769.692 252.072 770.881 257.744L810.16 445.173C811.49 451.519 809.794 457.756 805.509 462.269L700.541 572.837C695.206 578.457 686.609 580.63 678.046 578.523Z" stroke="url(#paint14_linear_1_254)" stroke-opacity="0.1" stroke-width="4"/>
<path opacity="0.231884" d="M705.336 575.484L535.878 541.53C528.906 540.133 522.582 536.172 518.531 530.665L398.393 367.353C394.797 362.465 393.287 356.757 394.174 351.406L421.502 186.535C422.674 179.462 427.886 173.849 435.351 171.62L580.985 128.138C588.449 125.909 597.152 127.368 604.107 132.014L766.251 240.313C771.513 243.828 775.301 248.856 776.834 254.36L828.047 438.251C829.774 444.452 828.482 450.687 824.503 455.354L727.78 568.782C722.75 574.681 714.148 577.249 705.336 575.484Z" stroke="url(#paint15_linear_1_254)" stroke-opacity="0.1" stroke-width="4"/>
<path opacity="0.246377" d="M732.014 571.941L562.153 545.464C555.109 544.366 548.577 540.727 544.223 535.474L414.322 378.777C410.488 374.152 408.649 368.643 409.177 363.362L425.591 199.208C426.302 192.09 431.217 186.231 438.63 183.664L579.726 134.802C587.139 132.235 596.026 133.314 603.303 137.666L771.123 238.019C776.522 241.248 780.555 245.996 782.409 251.307L845.202 431.244C847.307 437.276 846.413 443.486 842.748 448.293L754.387 564.193C749.675 570.374 741.072 573.353 732.014 571.941Z" stroke="url(#paint16_linear_1_254)" stroke-opacity="0.1" stroke-width="4"/>
<path opacity="0.26087" d="M758.047 567.93L588.355 548.87C581.261 548.073 574.553 544.766 569.924 539.783L430.797 390.02C426.756 385.671 424.616 380.382 424.797 375.193L430.465 212.18C430.714 205.032 435.323 198.929 442.671 196.017L578.859 142.044C586.208 139.131 595.265 139.818 602.845 143.863L775.731 236.113C781.234 239.049 785.477 243.505 787.626 248.604L861.621 424.18C864.082 430.021 863.58 436.186 860.239 441.118L780.321 559.102C775.942 565.567 767.345 568.974 758.047 567.93Z" stroke="url(#paint17_linear_1_254)" stroke-opacity="0.1" stroke-width="4"/>
<path opacity="0.275362" d="M783.416 563.485L614.453 551.756C607.333 551.261 600.48 548.293 595.606 543.592L447.809 401.066C443.593 397.001 441.178 391.947 441.025 386.87L436.146 225.411C435.93 218.251 440.223 211.907 447.493 208.642L578.429 149.842C585.699 146.578 594.909 146.858 602.773 150.584L780.105 234.6C785.681 237.242 790.1 241.395 792.519 246.267L877.311 417.087C880.108 422.721 879.986 428.821 876.977 433.864L805.555 553.543C801.527 560.294 792.946 564.147 783.416 563.485Z" stroke="url(#paint18_linear_1_254)" stroke-opacity="0.1" stroke-width="4"/>
<path opacity="0.289855" d="M808.097 558.644L640.409 554.131C633.286 553.94 626.319 551.315 621.227 546.905L465.337 411.897C460.977 408.121 458.315 403.313 457.844 398.364L442.64 238.864C441.958 231.709 445.923 225.127 453.098 221.502L578.469 158.175C585.644 154.551 594.987 154.411 603.114 157.806L784.265 233.484C789.886 235.832 794.449 239.679 797.111 244.313L892.274 409.995C895.382 415.407 895.631 421.425 892.959 426.564L830.054 547.553C826.397 554.589 817.848 558.907 808.097 558.644Z" stroke="url(#paint19_linear_1_254)" stroke-opacity="0.1" stroke-width="4"/>
<path opacity="0.304348" d="M832.074 553.443L666.19 556.008C659.087 556.118 652.036 553.839 646.755 549.726L483.369 422.496C478.893 419.01 476.01 414.456 475.237 409.65L449.958 252.5C448.811 245.367 452.434 238.552 459.494 234.562L579.018 167.017C586.078 163.028 595.532 162.454 603.899 165.507L788.24 232.768C793.878 234.826 798.555 238.365 801.434 242.754L906.515 402.933C909.911 408.11 910.519 414.031 908.19 419.251L853.793 541.17C850.528 548.487 842.03 553.289 832.074 553.443Z" stroke="url(#paint20_linear_1_254)" stroke-opacity="0.1" stroke-width="4"/>
<path opacity="0.318841" d="M855.333 547.918L691.766 557.398C684.705 557.807 677.598 555.873 672.154 552.062L501.888 432.846C497.323 429.65 494.245 425.353 493.188 420.7L458.106 266.282C456.494 259.188 459.761 252.144 466.685 247.783L580.11 176.341C587.034 171.98 596.572 170.959 605.158 173.66L792.055 232.456C797.686 234.228 802.45 237.463 805.521 241.601L920.042 395.928C923.703 400.862 924.657 406.671 922.674 411.958L876.746 534.431C873.898 542.026 865.477 547.33 855.333 547.918Z" stroke="url(#paint21_linear_1_254)" stroke-opacity="0.1" stroke-width="4"/>
<path opacity="0.333333" d="M877.862 542.106L717.103 558.314C710.105 559.019 702.971 557.429 697.39 553.92L520.877 442.932C516.245 440.02 512.996 435.98 511.672 431.49L467.085 280.17C465.012 273.134 467.907 265.867 474.67 261.131L581.778 186.118C588.541 181.382 598.135 179.902 606.914 182.241L795.734 232.549C801.337 234.042 806.162 236.978 809.402 240.865L932.862 389.009C936.766 393.692 938.053 399.377 936.42 404.716L898.893 527.378C896.486 535.244 888.172 541.067 877.862 542.106Z" stroke="url(#paint22_linear_1_254)" stroke-opacity="0.1" stroke-width="4"/>
<path opacity="0.347826" d="M899.656 536.043L742.172 558.771C735.26 559.769 728.124 558.518 722.43 555.311L540.315 452.736C535.638 450.102 532.24 446.318 530.668 441.997L476.895 294.126C474.363 287.166 476.869 279.685 483.445 274.57L584.05 196.319C590.626 191.204 600.244 189.255 609.193 191.224L799.304 233.049C804.86 234.272 809.724 236.915 813.111 240.553L944.988 382.203C949.111 386.632 950.719 392.183 949.436 397.559L920.216 520.052C918.277 528.178 910.103 534.536 899.656 536.043Z" stroke="url(#paint23_linear_1_254)" stroke-opacity="0.1" stroke-width="4"/>
<path opacity="0.362319" d="M920.709 529.765L766.945 558.787C760.138 560.072 753.024 559.155 747.238 556.247L560.183 462.243C555.48 459.879 551.952 456.348 550.149 452.199L487.532 308.114C484.547 301.247 486.646 293.561 493.006 288.067L586.954 206.911C593.314 201.417 602.922 198.99 612.014 200.581L802.789 233.957C808.282 234.918 813.166 237.278 816.68 240.669L956.428 375.539C960.751 379.711 962.666 385.118 961.735 390.518L940.7 512.495C939.256 520.868 931.264 527.773 920.709 529.765Z" stroke="url(#paint24_linear_1_254)" stroke-opacity="0.1" stroke-width="4"/>
<path opacity="0.376812" d="M941.023 523.306L791.396 558.377C784.714 559.943 777.645 559.354 771.788 556.742L580.463 471.436C575.748 469.334 572.108 466.05 570.09 462.076L498.992 322.095C495.561 315.339 497.234 307.46 503.346 301.589L590.517 217.86C596.63 211.989 606.191 209.078 615.399 210.284L806.217 235.272C811.633 235.982 816.521 238.068 820.145 241.218L967.201 369.044C971.703 372.958 973.914 378.213 973.334 383.623L960.339 504.753C959.416 513.355 951.65 520.815 941.023 523.306Z" stroke="url(#paint25_linear_1_254)" stroke-opacity="0.1" stroke-width="4"/>
<path opacity="0.391304" d="M960.599 516.699L815.496 557.559C808.958 559.401 801.954 559.131 796.044 556.811L601.128 480.302C596.415 478.452 592.678 475.407 590.46 471.61L511.263 336.032C507.393 329.407 508.621 321.348 514.453 315.104L594.758 229.132C600.59 222.889 610.065 219.49 619.362 220.305L809.612 236.995C814.94 237.462 819.818 239.286 823.536 242.2L977.319 362.745C981.982 366.4 984.476 371.498 984.245 376.904L979.123 496.868C978.746 505.679 971.256 513.698 960.599 516.699Z" stroke="url(#paint26_linear_1_254)" stroke-opacity="0.1" stroke-width="4"/>
<path opacity="0.405797" d="M979.443 509.977L839.226 556.353C832.849 558.463 825.928 558.505 819.98 556.471L622.158 488.825C617.458 487.218 613.637 484.406 611.233 480.784L524.337 349.891C520.036 343.413 520.8 335.19 526.317 328.582L599.7 240.691C605.217 234.082 614.563 230.195 623.921 230.616L813.001 239.122C818.232 239.358 823.089 240.929 826.889 243.615L986.801 356.666C991.609 360.065 994.374 365 994.491 370.389L997.053 488.886C997.247 497.881 990.087 506.456 979.443 509.977Z" stroke="url(#paint27_linear_1_254)" stroke-opacity="0.1" stroke-width="4"/>
<path opacity="0.42029" d="M997.563 503.17L862.56 554.778C856.361 557.148 849.539 557.494 843.569 555.74L643.526 496.992C638.847 495.618 634.953 493.031 632.375 489.583L538.196 363.636C533.475 357.322 533.756 348.956 538.923 341.994L605.354 252.497C610.522 245.536 619.697 241.163 629.086 241.187L816.407 241.653C821.535 241.665 826.364 242.995 830.233 245.46L995.665 350.835C1000.6 353.98 1003.63 358.748 1004.09 364.109L1014.13 480.851C1014.92 490.002 1008.14 499.124 997.563 503.17Z" stroke="url(#paint28_linear_1_254)" stroke-opacity="0.1" stroke-width="4"/>
<path opacity="0.434783" d="M1014.97 496.307L885.479 552.855C879.474 555.478 872.765 556.118 866.784 554.638L665.209 504.791C660.556 503.641 656.597 501.27 653.855 497.993L552.824 377.232C547.695 371.101 547.475 362.612 552.256 355.314L611.737 264.514C616.518 257.216 625.477 252.365 634.868 251.989L819.859 244.582C824.879 244.381 829.672 245.479 833.604 247.731L1003.93 345.275C1008.99 348.169 1012.27 352.767 1013.07 358.087L1030.36 472.809C1031.76 482.083 1025.44 491.735 1014.97 496.307Z" stroke="url(#paint29_linear_1_254)" stroke-opacity="0.1" stroke-width="4"/>
<path opacity="0.449275" d="M1031.67 489.414L907.965 550.604C902.167 553.472 895.585 554.397 889.602 553.186L687.179 512.211C682.557 511.275 678.539 509.113 675.643 506.004L568.204 390.648C562.679 384.716 561.941 376.131 566.3 368.515L618.855 276.702C623.214 269.086 631.911 263.768 641.276 262.993L823.381 247.907C828.289 247.5 833.044 248.376 837.03 250.422L1011.63 340.01C1016.79 342.658 1020.31 347.082 1021.45 352.351L1045.76 464.803C1047.79 474.165 1041.97 484.32 1031.67 489.414Z" stroke="url(#paint30_linear_1_254)" stroke-opacity="0.1" stroke-width="4"/>
<path opacity="0.463768" d="M1047.69 482.517L929.999 548.047C924.424 551.152 917.978 552.355 912.003 551.406L709.409 519.239C704.821 518.511 700.748 516.55 697.704 513.605L584.313 403.852C578.407 398.135 577.135 389.481 581.037 381.573L626.714 289.02C630.617 281.112 639.007 275.343 648.314 274.169L826.998 251.622C831.793 251.017 836.507 251.679 840.544 253.526L1018.77 335.063C1024.03 337.468 1027.78 341.716 1029.26 346.925L1060.35 456.878C1063.01 466.287 1057.76 476.909 1047.69 482.517Z" stroke="url(#paint31_linear_1_254)" stroke-opacity="0.1" stroke-width="4"/>
<path opacity="0.478261" d="M1063.03 475.639L951.565 545.207C946.224 548.54 939.925 550.012 933.964 549.32L731.871 525.869C727.315 525.34 723.19 523.574 720.005 520.788L601.125 416.812C594.854 411.328 593.036 402.637 596.449 394.466L635.314 301.429C638.727 293.258 646.766 287.058 655.984 285.488L830.733 255.72C835.415 254.922 840.087 255.379 844.172 257.034L1025.39 330.456C1030.74 332.622 1034.72 336.692 1036.52 341.83L1074.13 449.074C1077.43 458.488 1072.82 469.533 1063.03 475.639Z" stroke="url(#paint32_linear_1_254)" stroke-opacity="0.1" stroke-width="4"/>
<path opacity="0.492754" d="M1077.72 468.802L972.65 542.105C967.557 545.659 961.412 547.393 955.471 546.953L754.536 532.09C750.013 531.755 745.836 530.177 742.513 527.547L618.616 429.501C611.998 424.264 609.624 415.571 612.518 407.171L644.653 313.888C647.547 305.488 655.191 298.884 664.289 296.922L834.614 260.195C839.182 259.21 843.814 259.468 847.946 260.937L1031.52 326.21C1036.94 328.14 1041.15 332.031 1043.28 337.089L1087.15 441.433C1091.09 450.807 1087.16 462.217 1077.72 468.802Z" stroke="url(#paint33_linear_1_254)" stroke-opacity="0.1" stroke-width="4"/>
<path opacity="0.507246" d="M1091.76 462.026L993.241 538.765C988.407 542.531 982.423 544.52 976.506 544.329L777.375 537.896C772.883 537.751 768.652 536.355 765.193 533.878L636.758 441.891C629.811 436.915 626.876 428.258 629.224 419.668L654.723 326.359C657.07 317.769 664.279 310.789 673.227 308.441L838.66 265.039C843.116 263.87 847.71 263.934 851.89 265.222L1037.17 322.343C1042.68 324.041 1047.1 327.751 1049.55 332.721L1099.42 433.992C1103.99 443.278 1100.79 454.989 1091.76 462.026Z" stroke="url(#paint34_linear_1_254)" stroke-opacity="0.1" stroke-width="4"/>
<path opacity="0.521739" d="M1105.17 455.33L1013.33 535.209C1008.76 539.18 1002.95 541.418 997.057 541.472L800.358 543.281C795.894 543.322 791.608 542.106 788.013 539.777L655.521 453.956C648.265 449.256 644.768 440.675 646.548 431.937L665.512 338.803C667.292 330.065 674.027 322.745 682.795 320.019L842.897 270.243C847.242 268.893 851.801 268.766 856.03 269.878L1042.38 318.876C1047.96 320.343 1052.61 323.87 1055.37 328.743L1110.98 426.787C1116.17 435.936 1113.74 447.875 1105.17 455.33Z" stroke="url(#paint35_linear_1_254)" stroke-opacity="0.1" stroke-width="4"/>
<path opacity="0.536232" d="M1117.96 448.733L1032.9 531.462C1028.62 535.629 1022.98 538.112 1017.12 538.409L823.457 548.241C819.018 548.466 814.672 547.425 810.94 545.243L674.876 465.671C667.333 461.26 663.278 452.796 664.473 443.956L677.009 351.185C678.204 342.345 684.432 334.722 692.989 331.627L847.349 275.798C851.584 274.266 856.112 273.951 860.394 274.889L1047.19 315.824C1052.85 317.063 1057.7 320.404 1060.78 325.173L1121.86 419.848C1127.64 428.813 1126.01 440.899 1117.96 448.733Z" stroke="url(#paint36_linear_1_254)" stroke-opacity="0.1" stroke-width="4"/>
<path opacity="0.550725" d="M1130.14 442.254L1051.95 527.546C1047.96 531.901 1042.5 534.624 1036.67 535.164L846.638 552.771C842.22 553.18 837.81 552.314 833.938 550.275L694.786 477.015C686.978 472.904 682.376 464.601 682.975 455.706L689.19 363.471C689.789 354.576 695.482 346.692 703.799 343.239L852.034 281.693C856.16 279.98 860.661 279.477 865 280.243L1051.63 313.204C1057.35 314.215 1062.42 317.367 1065.8 322.023L1132.1 413.205C1138.45 421.937 1137.63 434.085 1130.14 442.254Z" stroke="url(#paint37_linear_1_254)" stroke-opacity="0.1" stroke-width="4"/>
<path opacity="0.565217" d="M1141.73 435.913L1070.48 523.486C1066.79 528.021 1061.51 530.981 1055.72 531.763L869.874 556.87C865.473 557.464 860.994 556.772 856.978 554.876L715.22 487.965C707.172 484.167 702.037 476.066 702.037 467.166V375.628C702.037 366.728 707.172 358.627 715.22 354.828L856.978 287.918C860.994 286.022 865.473 285.33 869.874 285.924L1055.72 311.03C1061.51 311.813 1066.79 314.773 1070.48 319.308L1141.73 406.881C1148.61 415.336 1148.61 427.458 1141.73 435.913Z" stroke="url(#paint38_linear_1_254)" stroke-opacity="0.1" stroke-width="4"/>
<path opacity="0.57971" d="M1152.74 429.729L1088.48 519.306C1085.1 524.012 1080.01 527.205 1074.26 528.232L893.133 560.535C888.745 561.318 884.19 560.801 880.025 559.049L736.141 498.504C727.877 495.027 722.232 487.17 721.636 478.316L715.525 387.628C714.929 378.774 719.487 370.501 727.238 366.371L862.197 294.46C866.104 292.378 870.564 291.494 875.033 291.916L1059.51 309.317C1065.37 309.87 1070.86 312.632 1074.85 317.037L1150.8 400.899C1158.17 409.032 1158.98 421.041 1152.74 429.729Z" stroke="url(#paint39_linear_1_254)" stroke-opacity="0.1" stroke-width="4"/>
<path opacity="0.594203" d="M1163.18 423.723L1105.94 515.03C1102.89 519.897 1098 523.321 1092.28 524.594L916.384 563.768C912.006 564.743 907.368 564.405 903.049 562.797L757.514 508.613C749.061 505.466 742.932 497.894 741.749 489.133L729.629 399.446C728.446 390.686 732.416 382.288 739.843 377.843L867.714 301.307C871.509 299.036 875.955 297.955 880.498 298.201L1063.02 308.074C1068.95 308.395 1074.65 310.953 1078.94 315.221L1159.34 395.275C1167.14 403.048 1168.74 414.858 1163.18 423.723Z" stroke="url(#paint40_linear_1_254)" stroke-opacity="0.1" stroke-width="4"/>
<path opacity="0.608696" d="M1173.06 417.918L1122.86 510.681C1120.15 515.7 1115.46 519.353 1109.79 520.876L939.595 566.569C935.225 567.742 930.498 567.589 926.018 566.127L779.3 518.277C770.685 515.467 764.105 508.216 762.35 499.598L744.321 411.058C742.566 402.44 745.943 393.963 753.021 389.22L873.547 308.447C877.227 305.98 881.662 304.698 886.284 304.763L1066.3 307.312C1072.3 307.397 1078.21 309.746 1082.79 313.866L1167.38 390.024C1175.57 397.401 1177.92 408.933 1173.06 417.918Z" stroke="url(#paint41_linear_1_254)" stroke-opacity="0.1" stroke-width="4"/>
<path opacity="0.623188" d="M1182.39 412.337L1139.26 506.284C1136.89 511.443 1132.42 515.323 1126.8 517.099L962.737 568.941C958.373 570.32 953.55 570.356 948.903 569.046L801.462 527.481C792.712 525.015 785.719 518.12 783.415 509.688L759.573 422.445C757.269 414.013 760.052 405.502 766.756 400.48L879.714 315.864C883.275 313.197 887.7 311.705 892.407 311.584L1069.39 307.041C1075.46 306.885 1081.57 309.015 1086.43 312.979L1174.96 385.158C1183.49 392.11 1186.54 403.29 1182.39 412.337Z" stroke="url(#paint42_linear_1_254)" stroke-opacity="0.1" stroke-width="4"/>
<path opacity="0.637681" d="M1191.19 407.005L1155.12 501.862C1153.11 507.15 1148.86 511.254 1143.3 513.289L985.778 570.886C981.421 572.48 976.496 572.715 971.675 571.562L823.962 536.215C815.106 534.095 807.739 527.586 804.913 519.382L775.358 433.588C772.532 425.384 774.727 416.882 781.034 411.603L886.235 323.545C889.669 320.671 894.085 318.96 898.883 318.645L1072.32 307.266C1078.45 306.864 1084.77 308.767 1089.91 312.564L1182.12 380.686C1190.92 387.187 1194.63 397.952 1191.19 407.005Z" stroke="url(#paint43_linear_1_254)" stroke-opacity="0.1" stroke-width="4"/>
<path opacity="0.652174" d="M1199.47 401.947L1170.46 497.44C1168.81 502.842 1164.8 507.168 1159.3 509.467L1008.69 572.412C1004.34 574.229 999.307 574.674 994.305 573.684L846.76 544.467C837.825 542.698 830.13 536.599 826.813 528.659L791.646 444.474C788.329 436.534 789.946 428.082 795.837 422.566L893.125 331.474C896.423 328.386 900.83 326.446 905.722 325.928L1075.14 307.992C1081.33 307.337 1087.84 309.003 1093.25 312.623L1188.88 376.615C1197.9 382.648 1202.2 392.944 1199.47 401.947Z" stroke="url(#paint44_linear_1_254)" stroke-opacity="0.1" stroke-width="4"/>
<path opacity="0.666667" d="M1207.25 397.188L1185.27 493.04C1184.01 498.543 1180.25 503.086 1174.82 505.654L1031.43 573.522C1027.1 575.576 1021.95 576.242 1016.77 575.423L869.815 552.23C860.833 550.812 852.854 545.144 849.082 537.501L808.41 455.088C804.638 447.446 805.691 439.081 811.147 433.353L900.401 339.635C903.552 336.326 907.946 334.145 912.936 333.413L1077.88 309.223C1084.12 308.308 1090.83 309.725 1096.5 313.157L1195.29 372.951C1204.46 378.504 1209.29 388.287 1207.25 397.188Z" stroke="url(#paint45_linear_1_254)" stroke-opacity="0.1" stroke-width="4"/>
<path opacity="0.681159" d="M1214.56 392.754L1199.58 488.686C1198.7 494.272 1195.2 499.029 1189.86 501.871L1053.99 574.226C1049.67 576.527 1044.41 577.428 1039.03 576.791L893.088 559.496C884.086 558.43 875.872 553.208 871.682 545.889L825.62 465.42C821.431 458.101 821.939 449.859 826.943 443.942L908.076 348.01C911.066 344.474 915.443 342.04 920.533 341.082L1080.58 310.958C1086.87 309.775 1093.76 310.932 1099.68 314.166L1201.36 369.698C1210.63 374.764 1215.92 384.003 1214.56 392.754Z" stroke="url(#paint46_linear_1_254)" stroke-opacity="0.1" stroke-width="4"/>
<path opacity="0.695652" d="M1221.41 388.668L1213.38 484.398C1212.91 490.051 1209.67 495.017 1204.44 498.138L1076.32 574.532C1072.02 577.094 1066.66 578.245 1061.08 577.8L916.541 566.263C907.548 565.545 899.146 560.78 894.578 553.808L843.254 475.459C838.687 468.487 838.669 460.398 843.208 454.318L916.167 356.583C918.981 352.813 923.334 350.112 928.524 348.914L1083.29 313.197C1089.61 311.738 1096.68 312.624 1102.83 315.648L1207.13 366.862C1216.45 371.439 1222.13 380.111 1221.41 388.668Z" stroke="url(#paint47_linear_1_254)" stroke-opacity="0.1" stroke-width="4"/>
<path opacity="0.710145" d="M1227.85 384.954L1226.69 480.2C1226.62 485.901 1223.68 491.069 1218.56 494.473L1098.4 574.45C1094.14 577.287 1088.66 578.705 1082.89 578.465L940.131 572.527C931.176 572.155 922.633 567.851 917.727 561.242L861.281 485.197C856.375 478.588 855.855 470.682 859.918 464.464L924.684 365.334C927.303 361.326 931.622 358.344 936.911 356.891L1086.04 315.937C1092.39 314.193 1099.61 314.795 1106 317.599L1212.62 364.444C1221.94 368.538 1227.95 376.631 1227.85 384.954Z" stroke="url(#paint48_linear_1_254)" stroke-opacity="0.1" stroke-width="4"/>
<path opacity="0.724638" d="M1233.89 381.634L1239.53 476.111C1239.87 481.84 1237.23 487.203 1232.25 490.894L1120.2 573.994C1115.98 577.118 1110.4 578.821 1104.43 578.8L963.819 578.287C954.932 578.255 946.293 574.414 941.089 568.182L879.675 494.625C874.472 488.393 873.475 480.692 877.052 474.364L933.641 374.244C936.043 369.995 940.316 366.716 945.699 364.993L1088.88 319.171C1095.24 317.136 1102.61 317.442 1109.2 320.015L1217.87 362.448C1227.14 366.066 1233.41 373.578 1233.89 381.634Z" stroke="url(#paint49_linear_1_254)" stroke-opacity="0.1" stroke-width="4"/>
<path opacity="0.73913" d="M1239.57 378.726L1251.9 472.151C1252.65 477.888 1250.34 483.435 1245.52 487.415L1141.68 573.176C1137.54 576.602 1131.85 578.609 1125.68 578.82L987.566 583.546C978.772 583.846 970.082 580.465 964.62 574.618L898.411 503.737C892.949 497.89 891.5 490.416 894.586 484.004L943.045 383.293C945.207 378.799 949.42 375.21 954.89 373.201L1091.84 322.893C1098.19 320.558 1105.69 320.557 1112.47 322.889L1222.9 360.877C1232.07 364.032 1238.55 370.965 1239.57 378.726Z" stroke="url(#paint50_linear_1_254)" stroke-opacity="0.1" stroke-width="4"/>
<path opacity="0.753623" d="M1244.94 376.249L1263.83 468.34C1265 474.063 1263.02 479.784 1258.38 484.053L1162.84 572.012C1158.77 575.752 1152.99 578.083 1146.64 578.542L1011.34 588.305C1002.66 588.931 993.962 586.002 988.279 580.544L917.465 512.526C911.782 507.068 909.908 499.839 912.499 493.371L952.908 392.461C954.805 387.722 958.938 383.808 964.487 381.495L1094.97 327.092C1101.3 324.451 1108.91 324.132 1115.86 326.215L1227.74 359.732C1236.78 362.441 1243.41 368.806 1244.94 376.249Z" stroke="url(#paint51_linear_1_254)" stroke-opacity="0.1" stroke-width="4"/>
<path opacity="0.768116" d="M1250.02 374.217L1275.32 464.693C1276.91 470.38 1275.28 476.263 1270.85 480.821L1183.62 570.518C1179.67 574.585 1173.81 577.26 1167.27 577.981L1035.09 592.57C1026.56 593.511 1017.89 591.024 1012.02 585.956L936.809 520.986C930.942 515.918 928.669 508.949 930.764 502.451L963.234 401.725C964.84 396.744 968.872 392.49 974.485 389.856L1098.29 331.757C1104.58 328.805 1112.28 328.157 1119.38 329.982L1232.42 359.016C1241.3 361.296 1248.03 367.109 1250.02 374.217Z" stroke="url(#paint52_linear_1_254)" stroke-opacity="0.1" stroke-width="4"/>
<path opacity="0.782609" d="M1254.85 372.641L1286.41 461.228C1288.42 466.858 1287.15 472.888 1282.95 477.731L1204.02 568.714C1200.2 573.118 1194.28 576.157 1187.57 577.157L1058.78 596.347C1050.43 597.593 1041.82 595.535 1035.8 590.855L956.419 529.113C950.401 524.432 947.756 517.736 949.358 511.234L974.03 411.064C975.315 405.845 979.222 401.24 984.885 398.268L1101.86 336.873C1108.08 333.605 1115.84 332.622 1123.08 334.182L1236.97 358.728C1245.66 360.601 1252.45 365.882 1254.85 372.641Z" stroke="url(#paint53_linear_1_254)" stroke-opacity="0.1" stroke-width="4"/>
<path opacity="0.797101" d="M1259.49 371.53L1297.11 457.959C1299.53 463.509 1298.65 469.671 1294.7 474.793L1224 566.618C1220.35 571.369 1214.39 574.791 1207.52 576.084L1082.39 599.644C1074.22 601.182 1065.71 599.539 1059.57 595.241L976.268 536.9C970.131 532.602 967.14 526.188 968.253 519.71L985.298 420.454C986.233 415.006 989.986 410.038 995.678 406.712L1105.7 342.425C1111.83 338.839 1119.62 337.512 1126.97 338.801L1241.41 358.87C1249.89 360.357 1256.7 365.128 1259.49 371.53Z" stroke="url(#paint54_linear_1_254)" stroke-opacity="0.1" stroke-width="4"/>
<path opacity="0.811594" d="M1263.96 370.891L1307.44 454.9C1310.26 460.349 1309.78 466.625 1306.12 472.018L1243.55 564.254C1240.09 569.357 1234.12 573.181 1227.11 574.783L1105.87 602.472C1097.92 604.289 1089.52 603.043 1083.3 599.121L996.333 544.346C990.106 540.424 986.795 534.299 987.426 527.869L997.04 429.874C997.596 424.206 1001.16 418.867 1006.86 415.172L1109.85 348.394C1115.87 344.49 1123.66 342.815 1131.1 343.828L1245.78 359.441C1254.03 360.564 1260.84 364.85 1263.96 370.891Z" stroke="url(#paint55_linear_1_254)" stroke-opacity="0.1" stroke-width="4"/>
<path opacity="0.826087" d="M1268.32 370.727L1317.42 452.064C1320.64 457.389 1320.56 463.76 1317.22 469.414L1262.64 561.644C1259.41 567.104 1253.46 571.346 1246.32 573.269L1129.19 604.841C1121.47 606.923 1113.22 606.056 1106.93 602.501L1016.59 551.446C1010.29 547.891 1006.69 542.06 1006.85 535.703L1009.25 439.298C1009.4 433.427 1012.75 427.71 1018.42 423.633L1114.33 354.762C1120.21 350.54 1127.98 348.515 1135.48 349.248L1250.11 360.439C1258.12 361.221 1264.89 365.047 1268.32 370.727Z" stroke="url(#paint56_linear_1_254)" stroke-opacity="0.1" stroke-width="4"/>
<path opacity="0.84058" d="M1272.6 371.039L1327.08 449.461C1330.68 454.642 1331.03 461.087 1328.02 466.988L1281.26 558.815C1278.3 564.63 1272.39 569.304 1265.16 571.56L1152.32 606.764C1144.84 609.096 1136.76 608.59 1130.43 605.391L1037 558.199C1030.67 555 1026.79 549.467 1026.49 543.205L1021.94 448.704C1021.65 442.647 1024.73 436.551 1030.36 432.082L1119.19 361.505C1124.9 356.97 1132.61 354.594 1140.16 355.045L1254.43 361.862C1262.18 362.325 1268.9 365.717 1272.6 371.039Z" stroke="url(#paint57_linear_1_254)" stroke-opacity="0.1" stroke-width="4"/>
<path opacity="0.855072" d="M1276.84 371.824L1336.43 447.101C1340.41 452.119 1341.18 458.615 1338.55 464.747L1299.38 555.794C1296.73 561.959 1290.92 567.075 1283.61 569.675L1175.22 608.254C1168.01 610.823 1160.11 610.658 1153.76 607.804L1057.56 564.603C1051.2 561.75 1047.07 556.516 1046.33 550.37L1035.09 458.068C1034.33 451.848 1037.12 445.375 1042.66 440.507L1124.45 368.602C1129.96 363.76 1137.58 361.036 1145.15 361.203L1258.76 363.706C1266.26 363.871 1272.91 366.855 1276.84 371.824Z" stroke="url(#paint58_linear_1_254)" stroke-opacity="0.1" stroke-width="4"/>
<path opacity="0.869565" d="M1281.09 373.077L1345.5 444.992C1349.83 449.827 1351.05 456.352 1348.81 462.694L1317 552.61C1314.7 559.114 1309.02 564.677 1301.68 567.629L1197.88 609.328C1190.93 612.117 1183.24 612.274 1176.88 609.754L1078.23 570.657C1071.87 568.137 1067.51 563.203 1066.33 557.194L1048.69 467.367C1047.44 461.009 1049.89 454.166 1055.3 448.895L1130.13 376.028C1135.41 370.888 1142.91 367.82 1150.48 367.703L1263.15 365.965C1270.39 365.854 1276.95 368.454 1281.09 373.077Z" stroke="url(#paint59_linear_1_254)" stroke-opacity="0.1" stroke-width="4"/>
<path opacity="0.884058" d="M1285.39 374.791L1354.32 443.141C1358.99 447.776 1360.66 454.304 1358.83 460.833L1334.1 549.292C1332.19 556.12 1326.7 562.132 1319.34 565.44L1220.25 610C1213.58 612.996 1206.1 613.455 1199.75 611.258L1098.98 576.361C1092.64 574.164 1088.07 569.529 1086.47 563.673L1062.74 476.577C1060.98 470.111 1063.04 462.912 1068.29 457.24L1136.26 383.756C1141.28 378.331 1148.63 374.926 1156.18 374.527L1267.61 368.634C1274.6 368.265 1281.06 370.505 1285.39 374.791Z" stroke="url(#paint60_linear_1_254)" stroke-opacity="0.1" stroke-width="4"/>
<path opacity="0.898551" d="M1289.77 376.956L1362.89 441.554C1367.89 445.972 1370.01 452.477 1368.62 459.169L1350.68 545.872C1349.2 553.003 1343.94 559.458 1336.61 563.124L1242.31 610.289C1235.93 613.477 1228.66 614.221 1222.34 612.334L1119.8 581.718C1113.48 579.83 1108.71 575.492 1106.72 569.806L1077.22 485.676C1074.92 479.136 1076.56 471.599 1081.6 465.532L1142.85 391.76C1147.58 386.066 1154.75 382.334 1162.27 381.653L1272.18 371.705C1278.92 371.095 1285.29 372.997 1289.77 376.956Z" stroke="url(#paint61_linear_1_254)" stroke-opacity="0.1" stroke-width="4"/>
<path opacity="0.913043" d="M1294.27 379.56L1371.25 440.236C1376.56 444.421 1379.13 450.877 1378.21 457.703L1366.73 542.382C1365.73 549.787 1360.74 556.673 1353.47 560.696L1264.04 610.213C1257.96 613.578 1250.9 614.591 1244.61 613.001L1140.65 586.728C1134.36 585.139 1129.42 581.095 1127.05 575.593L1092.11 494.643C1089.27 488.065 1090.44 480.216 1095.23 473.767L1149.93 400.013C1154.34 394.067 1161.3 390.019 1168.76 389.061L1276.89 375.167C1283.38 374.333 1289.65 375.918 1294.27 379.56Z" stroke="url(#paint62_linear_1_254)" stroke-opacity="0.1" stroke-width="4"/>
<path opacity="0.927536" d="M1298.94 382.59L1379.42 439.19C1385.02 443.129 1388.04 449.507 1387.59 456.438L1382.25 538.855C1381.76 546.501 1377.11 553.798 1369.94 558.174L1285.41 609.791C1279.63 613.321 1272.79 614.586 1266.54 613.283L1161.52 591.396C1155.27 590.093 1150.17 586.34 1147.43 581.035L1107.4 503.458C1104.01 496.881 1104.67 488.753 1109.16 481.939L1157.51 408.486C1161.58 402.309 1168.3 397.961 1175.68 396.728L1281.77 379.011C1288.02 377.967 1294.19 379.254 1298.94 382.59Z" stroke="url(#paint63_linear_1_254)" stroke-opacity="0.1" stroke-width="4"/>
<path opacity="0.942029" d="M1303.79 386.029L1387.42 438.419C1393.29 442.099 1396.76 448.373 1396.8 455.375L1397.25 535.322C1397.3 543.169 1393.03 550.852 1386 555.571L1306.4 609.043C1300.92 612.726 1294.3 614.229 1288.1 613.203L1182.38 595.725C1176.17 594.699 1170.92 591.234 1167.84 586.135L1123.08 512.102C1119.12 505.568 1119.24 497.199 1123.39 490.044L1165.6 417.151C1169.3 410.767 1175.76 406.134 1183.05 404.63L1286.84 383.226C1292.86 381.984 1298.94 382.988 1303.79 386.029Z" stroke="url(#paint64_linear_1_254)" stroke-opacity="0.1" stroke-width="4"/>
<path opacity="0.956522" d="M1308.87 389.86L1395.26 437.924C1401.39 441.334 1405.31 447.475 1405.84 454.515L1411.74 531.814C1412.35 539.818 1408.51 547.852 1401.66 552.904L1326.99 607.991C1321.8 611.815 1315.41 613.543 1309.25 612.785L1203.2 599.72C1197.04 598.961 1191.65 595.78 1188.24 590.898L1139.11 520.559C1134.6 514.108 1134.14 505.545 1137.9 498.079L1174.22 425.98C1177.52 419.413 1183.69 414.514 1190.87 412.744L1292.13 387.798C1297.94 386.368 1303.92 387.105 1308.87 389.86Z" stroke="url(#paint65_linear_1_254)" stroke-opacity="0.1" stroke-width="4"/>
<path opacity="0.971014" d="M1314.2 394.064L1402.98 437.707C1409.34 440.836 1413.69 446.817 1414.73 453.86L1425.72 528.361C1426.91 536.473 1423.55 544.818 1416.92 550.187L1347.16 606.656C1342.27 610.61 1336.09 612.553 1329.99 612.054L1223.96 603.386C1217.85 602.887 1212.33 599.987 1208.61 595.329L1155.47 528.813C1150.42 522.49 1149.36 513.782 1152.69 506.041L1183.35 434.944C1186.25 428.223 1192.11 423.076 1199.17 421.046L1297.67 392.712C1303.27 391.103 1309.16 391.585 1314.2 394.064Z" stroke="url(#paint66_linear_1_254)" stroke-opacity="0.1" stroke-width="4"/>
<path opacity="0.985507" d="M1319.81 398.62L1410.59 437.769C1417.17 440.607 1421.94 446.4 1423.48 453.411L1439.21 524.99C1441 533.158 1438.15 541.769 1431.77 547.436L1366.89 605.061C1362.3 609.137 1356.33 611.285 1350.28 611.038L1244.64 606.732C1238.59 606.485 1232.94 603.863 1228.92 599.436L1172.15 536.853C1166.56 530.698 1164.88 521.902 1167.76 513.925L1193.02 444.017C1195.49 437.17 1201.02 431.796 1207.95 429.509L1303.49 397.954C1308.88 396.173 1314.69 396.41 1319.81 398.62Z" stroke="url(#paint67_linear_1_254)" stroke-opacity="0.1" stroke-width="4"/>
<path d="M1325.73 403.507L1418.11 438.108C1424.88 440.647 1430.07 446.227 1432.11 453.171L1452.23 521.726C1454.62 529.896 1452.31 538.723 1446.22 544.668L1386.18 603.228C1381.88 607.418 1376.12 609.763 1370.12 609.763H1265.21C1259.21 609.763 1253.45 607.418 1249.15 603.228L1189.11 544.668C1183.02 538.722 1180.7 529.896 1183.1 521.726L1203.22 453.171C1205.26 446.227 1210.44 440.647 1217.22 438.108L1309.6 403.507C1314.8 401.558 1320.53 401.558 1325.73 403.507Z" stroke="url(#paint68_linear_1_254)" stroke-opacity="0.1" stroke-width="4"/>
</g>
<defs>
<linearGradient id="paint0_linear_1_254" x1="260.847" y1="564.901" x2="458.06" y2="-4.57887" gradientUnits="userSpaceOnUse">
<stop stop-color="#FF1CF7"/>
<stop offset="1" stop-color="#00F0FF"/>
</linearGradient>
<linearGradient id="paint1_linear_1_254" x1="292.831" y1="571.187" x2="462.406" y2="3.23687" gradientUnits="userSpaceOnUse">
<stop stop-color="#FF1CF7"/>
<stop offset="1" stop-color="#00F0FF"/>
</linearGradient>
<linearGradient id="paint2_linear_1_254" x1="324.857" y1="576.667" x2="467.818" y2="10.9909" gradientUnits="userSpaceOnUse">
<stop stop-color="#FF1CF7"/>
<stop offset="1" stop-color="#00F0FF"/>
</linearGradient>
<linearGradient id="paint3_linear_1_254" x1="356.866" y1="581.349" x2="474.156" y2="18.5753" gradientUnits="userSpaceOnUse">
<stop stop-color="#FF1CF7"/>
<stop offset="1" stop-color="#00F0FF"/>
</linearGradient>
<linearGradient id="paint4_linear_1_254" x1="388.801" y1="585.24" x2="481.275" y2="25.9045" gradientUnits="userSpaceOnUse">
<stop stop-color="#FF1CF7"/>
<stop offset="1" stop-color="#00F0FF"/>
</linearGradient>
<linearGradient id="paint5_linear_1_254" x1="420.608" y1="588.35" x2="489.034" y2="32.913" gradientUnits="userSpaceOnUse">
<stop stop-color="#FF1CF7"/>
<stop offset="1" stop-color="#00F0FF"/>
</linearGradient>
<linearGradient id="paint6_linear_1_254" x1="452.234" y1="590.694" x2="497.291" y2="39.5553" gradientUnits="userSpaceOnUse">
<stop stop-color="#FF1CF7"/>
<stop offset="1" stop-color="#00F0FF"/>
</linearGradient>
<linearGradient id="paint7_linear_1_254" x1="483.627" y1="592.285" x2="505.903" y2="45.8032" gradientUnits="userSpaceOnUse">
<stop stop-color="#FF1CF7"/>
<stop offset="1" stop-color="#00F0FF"/>
</linearGradient>
<linearGradient id="paint8_linear_1_254" x1="514.736" y1="593.142" x2="514.736" y2="51.6444" gradientUnits="userSpaceOnUse">
<stop stop-color="#FF1CF7"/>
<stop offset="1" stop-color="#00F0FF"/>
</linearGradient>
<linearGradient id="paint9_linear_1_254" x1="545.51" y1="593.283" x2="523.653" y2="57.083" gradientUnits="userSpaceOnUse">
<stop stop-color="#FF1CF7"/>
<stop offset="1" stop-color="#00F0FF"/>
</linearGradient>
<linearGradient id="paint10_linear_1_254" x1="575.904" y1="592.731" x2="532.528" y2="62.138" gradientUnits="userSpaceOnUse">
<stop stop-color="#FF1CF7"/>
<stop offset="1" stop-color="#00F0FF"/>
</linearGradient>
<linearGradient id="paint11_linear_1_254" x1="605.872" y1="591.507" x2="541.237" y2="66.842" gradientUnits="userSpaceOnUse">
<stop stop-color="#FF1CF7"/>
<stop offset="1" stop-color="#00F0FF"/>
</linearGradient>
<linearGradient id="paint12_linear_1_254" x1="635.371" y1="589.638" x2="549.665" y2="71.242" gradientUnits="userSpaceOnUse">
<stop stop-color="#FF1CF7"/>
<stop offset="1" stop-color="#00F0FF"/>
</linearGradient>
<linearGradient id="paint13_linear_1_254" x1="664.359" y1="587.15" x2="557.703" y2="75.3981" gradientUnits="userSpaceOnUse">
<stop stop-color="#FF1CF7"/>
<stop offset="1" stop-color="#00F0FF"/>
</linearGradient>
<linearGradient id="paint14_linear_1_254" x1="692.799" y1="584.071" x2="565.251" y2="79.3841" gradientUnits="userSpaceOnUse">
<stop stop-color="#FF1CF7"/>
<stop offset="1" stop-color="#00F0FF"/>
</linearGradient>
<linearGradient id="paint15_linear_1_254" x1="720.653" y1="580.43" x2="572.219" y2="83.2849" gradientUnits="userSpaceOnUse">
<stop stop-color="#FF1CF7"/>
<stop offset="1" stop-color="#00F0FF"/>
</linearGradient>
<linearGradient id="paint16_linear_1_254" x1="747.89" y1="576.26" x2="578.527" y2="87.201" gradientUnits="userSpaceOnUse">
<stop stop-color="#FF1CF7"/>
<stop offset="1" stop-color="#00F0FF"/>
</linearGradient>
<linearGradient id="paint17_linear_1_254" x1="774.473" y1="571.59" x2="584.105" y2="91.243" gradientUnits="userSpaceOnUse">
<stop stop-color="#FF1CF7"/>
<stop offset="1" stop-color="#00F0FF"/>
</linearGradient>
<linearGradient id="paint18_linear_1_254" x1="800.381" y1="566.456" x2="588.905" y2="95.535" gradientUnits="userSpaceOnUse">
<stop stop-color="#FF1CF7"/>
<stop offset="1" stop-color="#00F0FF"/>
</linearGradient>
<linearGradient id="paint19_linear_1_254" x1="825.582" y1="560.891" x2="592.887" y2="100.215" gradientUnits="userSpaceOnUse">
<stop stop-color="#FF1CF7"/>
<stop offset="1" stop-color="#00F0FF"/>
</linearGradient>
<linearGradient id="paint20_linear_1_254" x1="850.054" y1="554.93" x2="596.035" y2="105.428" gradientUnits="userSpaceOnUse">
<stop stop-color="#FF1CF7"/>
<stop offset="1" stop-color="#00F0FF"/>
</linearGradient>
<linearGradient id="paint21_linear_1_254" x1="873.779" y1="548.609" x2="598.356" y2="111.331" gradientUnits="userSpaceOnUse">
<stop stop-color="#FF1CF7"/>
<stop offset="1" stop-color="#00F0FF"/>
</linearGradient>
<linearGradient id="paint22_linear_1_254" x1="896.737" y1="541.963" x2="599.878" y2="118.087" gradientUnits="userSpaceOnUse">
<stop stop-color="#FF1CF7"/>
<stop offset="1" stop-color="#00F0FF"/>
</linearGradient>
<linearGradient id="paint23_linear_1_254" x1="918.913" y1="535.03" x2="600.66" y2="125.865" gradientUnits="userSpaceOnUse">
<stop stop-color="#FF1CF7"/>
<stop offset="1" stop-color="#00F0FF"/>
</linearGradient>
<linearGradient id="paint24_linear_1_254" x1="940.296" y1="527.847" x2="600.793" y2="134.834" gradientUnits="userSpaceOnUse">
<stop stop-color="#FF1CF7"/>
<stop offset="1" stop-color="#00F0FF"/>
</linearGradient>
<linearGradient id="paint25_linear_1_254" x1="960.877" y1="520.451" x2="600.402" y2="145.159" gradientUnits="userSpaceOnUse">
<stop stop-color="#FF1CF7"/>
<stop offset="1" stop-color="#00F0FF"/>
</linearGradient>
<linearGradient id="paint26_linear_1_254" x1="980.647" y1="512.879" x2="599.648" y2="156.992" gradientUnits="userSpaceOnUse">
<stop stop-color="#FF1CF7"/>
<stop offset="1" stop-color="#00F0FF"/>
</linearGradient>
<linearGradient id="paint27_linear_1_254" x1="999.606" y1="505.169" x2="598.731" y2="170.47" gradientUnits="userSpaceOnUse">
<stop stop-color="#FF1CF7"/>
<stop offset="1" stop-color="#00F0FF"/>
</linearGradient>
<linearGradient id="paint28_linear_1_254" x1="1017.75" y1="497.356" x2="597.887" y2="185.701" gradientUnits="userSpaceOnUse">
<stop stop-color="#FF1CF7"/>
<stop offset="1" stop-color="#00F0FF"/>
</linearGradient>
<linearGradient id="paint29_linear_1_254" x1="1035.08" y1="489.479" x2="597.389" y2="202.755" gradientUnits="userSpaceOnUse">
<stop stop-color="#FF1CF7"/>
<stop offset="1" stop-color="#00F0FF"/>
</linearGradient>
<linearGradient id="paint30_linear_1_254" x1="1051.61" y1="481.572" x2="597.538" y2="221.656" gradientUnits="userSpaceOnUse">
<stop stop-color="#FF1CF7"/>
<stop offset="1" stop-color="#00F0FF"/>
</linearGradient>
<linearGradient id="paint31_linear_1_254" x1="1067.33" y1="473.673" x2="598.655" y2="242.371" gradientUnits="userSpaceOnUse">
<stop stop-color="#FF1CF7"/>
<stop offset="1" stop-color="#00F0FF"/>
</linearGradient>
<linearGradient id="paint32_linear_1_254" x1="1082.27" y1="465.815" x2="601.07" y2="264.801" gradientUnits="userSpaceOnUse">
<stop stop-color="#FF1CF7"/>
<stop offset="1" stop-color="#00F0FF"/>
</linearGradient>
<linearGradient id="paint33_linear_1_254" x1="1096.43" y1="458.034" x2="605.107" y2="288.779" gradientUnits="userSpaceOnUse">
<stop stop-color="#FF1CF7"/>
<stop offset="1" stop-color="#00F0FF"/>
</linearGradient>
<linearGradient id="paint34_linear_1_254" x1="1109.82" y1="450.362" x2="611.066" y2="314.065" gradientUnits="userSpaceOnUse">
<stop stop-color="#FF1CF7"/>
<stop offset="1" stop-color="#00F0FF"/>
</linearGradient>
<linearGradient id="paint35_linear_1_254" x1="1122.46" y1="442.831" x2="619.203" y2="340.353" gradientUnits="userSpaceOnUse">
<stop stop-color="#FF1CF7"/>
<stop offset="1" stop-color="#00F0FF"/>
</linearGradient>
<linearGradient id="paint36_linear_1_254" x1="1134.38" y1="435.474" x2="629.72" y2="367.28" gradientUnits="userSpaceOnUse">
<stop stop-color="#FF1CF7"/>
<stop offset="1" stop-color="#00F0FF"/>
</linearGradient>
<linearGradient id="paint37_linear_1_254" x1="1145.59" y1="428.319" x2="642.733" y2="394.437" gradientUnits="userSpaceOnUse">
<stop stop-color="#FF1CF7"/>
<stop offset="1" stop-color="#00F0FF"/>
</linearGradient>
<linearGradient id="paint38_linear_1_254" x1="1156.12" y1="421.397" x2="658.283" y2="421.397" gradientUnits="userSpaceOnUse">
<stop stop-color="#FF1CF7"/>
<stop offset="1" stop-color="#00F0FF"/>
</linearGradient>
<linearGradient id="paint39_linear_1_254" x1="1165.99" y1="414.734" x2="676.315" y2="447.728" gradientUnits="userSpaceOnUse">
<stop stop-color="#FF1CF7"/>
<stop offset="1" stop-color="#00F0FF"/>
</linearGradient>
<linearGradient id="paint40_linear_1_254" x1="1175.24" y1="408.356" x2="696.687" y2="473.022" gradientUnits="userSpaceOnUse">
<stop stop-color="#FF1CF7"/>
<stop offset="1" stop-color="#00F0FF"/>
</linearGradient>
<linearGradient id="paint41_linear_1_254" x1="1183.87" y1="402.289" x2="719.179" y2="496.914" gradientUnits="userSpaceOnUse">
<stop stop-color="#FF1CF7"/>
<stop offset="1" stop-color="#00F0FF"/>
</linearGradient>
<linearGradient id="paint42_linear_1_254" x1="1191.94" y1="396.555" x2="743.506" y2="519.101" gradientUnits="userSpaceOnUse">
<stop stop-color="#FF1CF7"/>
<stop offset="1" stop-color="#00F0FF"/>
</linearGradient>
<linearGradient id="paint43_linear_1_254" x1="1199.47" y1="391.174" x2="769.337" y2="539.351" gradientUnits="userSpaceOnUse">
<stop stop-color="#FF1CF7"/>
<stop offset="1" stop-color="#00F0FF"/>
</linearGradient>
<linearGradient id="paint44_linear_1_254" x1="1206.49" y1="386.169" x2="796.318" y2="557.513" gradientUnits="userSpaceOnUse">
<stop stop-color="#FF1CF7"/>
<stop offset="1" stop-color="#00F0FF"/>
</linearGradient>
<linearGradient id="paint45_linear_1_254" x1="1213.04" y1="381.555" x2="824.088" y2="573.51" gradientUnits="userSpaceOnUse">
<stop stop-color="#FF1CF7"/>
<stop offset="1" stop-color="#00F0FF"/>
</linearGradient>
<linearGradient id="paint46_linear_1_254" x1="1219.15" y1="377.35" x2="852.296" y2="587.342" gradientUnits="userSpaceOnUse">
<stop stop-color="#FF1CF7"/>
<stop offset="1" stop-color="#00F0FF"/>
</linearGradient>
<linearGradient id="paint47_linear_1_254" x1="1224.86" y1="373.567" x2="880.625" y2="599.069" gradientUnits="userSpaceOnUse">
<stop stop-color="#FF1CF7"/>
<stop offset="1" stop-color="#00F0FF"/>
</linearGradient>
<linearGradient id="paint48_linear_1_254" x1="1230.21" y1="370.221" x2="908.787" y2="608.803" gradientUnits="userSpaceOnUse">
<stop stop-color="#FF1CF7"/>
<stop offset="1" stop-color="#00F0FF"/>
</linearGradient>
<linearGradient id="paint49_linear_1_254" x1="1235.23" y1="367.32" x2="936.543" y2="616.696" gradientUnits="userSpaceOnUse">
<stop stop-color="#FF1CF7"/>
<stop offset="1" stop-color="#00F0FF"/>
</linearGradient>
<linearGradient id="paint50_linear_1_254" x1="1239.95" y1="364.875" x2="963.696" y2="622.924" gradientUnits="userSpaceOnUse">
<stop stop-color="#FF1CF7"/>
<stop offset="1" stop-color="#00F0FF"/>
</linearGradient>
<linearGradient id="paint51_linear_1_254" x1="1244.43" y1="362.893" x2="990.1" y2="627.681" gradientUnits="userSpaceOnUse">
<stop stop-color="#FF1CF7"/>
<stop offset="1" stop-color="#00F0FF"/>
</linearGradient>
<linearGradient id="paint52_linear_1_254" x1="1248.7" y1="361.379" x2="1015.65" y2="631.163" gradientUnits="userSpaceOnUse">
<stop stop-color="#FF1CF7"/>
<stop offset="1" stop-color="#00F0FF"/>
</linearGradient>
<linearGradient id="paint53_linear_1_254" x1="1252.79" y1="360.336" x2="1040.27" y2="633.566" gradientUnits="userSpaceOnUse">
<stop stop-color="#FF1CF7"/>
<stop offset="1" stop-color="#00F0FF"/>
</linearGradient>
<linearGradient id="paint54_linear_1_254" x1="1256.74" y1="359.766" x2="1063.93" y2="635.076" gradientUnits="userSpaceOnUse">
<stop stop-color="#FF1CF7"/>
<stop offset="1" stop-color="#00F0FF"/>
</linearGradient>
<linearGradient id="paint55_linear_1_254" x1="1260.6" y1="359.669" x2="1086.63" y2="635.869" gradientUnits="userSpaceOnUse">
<stop stop-color="#FF1CF7"/>
<stop offset="1" stop-color="#00F0FF"/>
</linearGradient>
<linearGradient id="paint56_linear_1_254" x1="1264.39" y1="360.043" x2="1108.39" y2="636.104" gradientUnits="userSpaceOnUse">
<stop stop-color="#FF1CF7"/>
<stop offset="1" stop-color="#00F0FF"/>
</linearGradient>
<linearGradient id="paint57_linear_1_254" x1="1268.16" y1="360.884" x2="1129.23" y2="635.922" gradientUnits="userSpaceOnUse">
<stop stop-color="#FF1CF7"/>
<stop offset="1" stop-color="#00F0FF"/>
</linearGradient>
<linearGradient id="paint58_linear_1_254" x1="1271.94" y1="362.188" x2="1149.23" y2="635.45" gradientUnits="userSpaceOnUse">
<stop stop-color="#FF1CF7"/>
<stop offset="1" stop-color="#00F0FF"/>
</linearGradient>
<linearGradient id="paint59_linear_1_254" x1="1275.77" y1="363.946" x2="1168.43" y2="634.797" gradientUnits="userSpaceOnUse">
<stop stop-color="#FF1CF7"/>
<stop offset="1" stop-color="#00F0FF"/>
</linearGradient>
<linearGradient id="paint60_linear_1_254" x1="1279.68" y1="366.151" x2="1186.91" y2="634.053" gradientUnits="userSpaceOnUse">
<stop stop-color="#FF1CF7"/>
<stop offset="1" stop-color="#00F0FF"/>
</linearGradient>
<linearGradient id="paint61_linear_1_254" x1="1283.71" y1="368.793" x2="1204.73" y2="633.296" gradientUnits="userSpaceOnUse">
<stop stop-color="#FF1CF7"/>
<stop offset="1" stop-color="#00F0FF"/>
</linearGradient>
<linearGradient id="paint62_linear_1_254" x1="1287.88" y1="371.858" x2="1221.99" y2="632.588" gradientUnits="userSpaceOnUse">
<stop stop-color="#FF1CF7"/>
<stop offset="1" stop-color="#00F0FF"/>
</linearGradient>
<linearGradient id="paint63_linear_1_254" x1="1292.23" y1="375.336" x2="1238.75" y2="631.977" gradientUnits="userSpaceOnUse">
<stop stop-color="#FF1CF7"/>
<stop offset="1" stop-color="#00F0FF"/>
</linearGradient>
<linearGradient id="paint64_linear_1_254" x1="1296.79" y1="379.21" x2="1255.08" y2="631.5" gradientUnits="userSpaceOnUse">
<stop stop-color="#FF1CF7"/>
<stop offset="1" stop-color="#00F0FF"/>
</linearGradient>
<linearGradient id="paint65_linear_1_254" x1="1301.59" y1="383.466" x2="1271.08" y2="631.182" gradientUnits="userSpaceOnUse">
<stop stop-color="#FF1CF7"/>
<stop offset="1" stop-color="#00F0FF"/>
</linearGradient>
<linearGradient id="paint66_linear_1_254" x1="1306.65" y1="388.087" x2="1286.79" y2="631.04" gradientUnits="userSpaceOnUse">
<stop stop-color="#FF1CF7"/>
<stop offset="1" stop-color="#00F0FF"/>
</linearGradient>
<linearGradient id="paint67_linear_1_254" x1="1312" y1="393.054" x2="1302.3" y2="631.08" gradientUnits="userSpaceOnUse">
<stop stop-color="#FF1CF7"/>
<stop offset="1" stop-color="#00F0FF"/>
</linearGradient>
<linearGradient id="paint68_linear_1_254" x1="1317.66" y1="398.349" x2="1317.66" y2="631.301" gradientUnits="userSpaceOnUse">
<stop stop-color="#FF1CF7"/>
<stop offset="1" stop-color="#00F0FF"/>
</linearGradient>
<clipPath id="clip0_1_254">
<rect width="1440" height="692" fill="white"/>
</clipPath>
</defs>
</svg>
