<svg width="60" height="60" viewBox="0 0 60 60" fill="none" xmlns="http://www.w3.org/2000/svg">
<path d="M29.475 28.75H24.3V20.475H30.475C33.625 20.475 35.375 21.875 35.375 24.45C35.375 27.25 33.3 28.75 29.475 28.75ZM30.4 31.575H24.3V40.675H30.7C34.6 40.675 36.65 39.1 36.65 36.1C36.65 33.1 34.525 31.575 30.4 31.575ZM55 13.275V46.725C55 51.25 51.25 55 46.725 55H13.275C8.75 55 5 51.25 5 46.725V13.275C5 8.75 8.75 5 13.275 5H46.725C51.25 5 55 8.75 55 13.275ZM40 36.25C40 32.8 37.7 30.325 34.175 29.875V29.725C36.675 29.275 38.65 26.775 38.65 24.075C38.65 20.2 35.65 17.625 31.25 17.625H21.075V43.525H31.175C36.7 43.525 40 40.8 40 36.25Z" fill="#00D2DF"/>
</svg>
