<svg width="60" height="60" viewBox="0 0 60 60" fill="none" xmlns="http://www.w3.org/2000/svg">
<g clip-path="url(#clip0_12_113)">
<path d="M30.0001 30C30.0001 16.6706 50.0007 16.6706 50.0007 30C50.0007 43.3294 30.0001 43.3294 30.0001 30ZM9.99943 50.0006C9.99943 44.4731 14.4713 40.0012 19.9988 40.0012H29.9982V50.0006C29.9982 63.33 9.99756 63.33 9.99756 50.0006H9.99943ZM30.0001 -1.83086e-06V20.0006H39.9994C53.3288 20.0006 53.3288 -1.83086e-06 39.9994 -1.83086e-06H30.0001ZM9.99943 9.99937C9.99943 15.5269 14.4713 19.9988 19.9988 19.9988H29.9982V-0.00187683H19.9988C14.4713 -0.00187683 9.99943 4.47 9.99943 9.9975V9.99937ZM9.99943 30C9.99943 35.5275 14.4713 39.9994 19.9988 39.9994H29.9982V19.9988H19.9988C14.4713 19.9988 9.99943 24.4706 9.99943 29.9981V30Z" fill="#00D2DF"/>
</g>
<defs>
<clipPath id="clip0_12_113">
<rect width="60" height="60" fill="white"/>
</clipPath>
</defs>
</svg>
