<svg width="30" height="30" viewBox="0 0 30 30" fill="none" xmlns="http://www.w3.org/2000/svg">
<path d="M20 27.5335V22.696C20.0469 22.0999 19.9664 21.5007 19.7638 20.9382C19.5612 20.3757 19.2412 19.8628 18.825 19.4335C22.75 18.996 26.875 17.5085 26.875 10.6835C26.8747 8.93828 26.2034 7.25999 25 5.99599C25.5698 4.46912 25.5295 2.78143 24.8875 1.28349C24.8875 1.28349 23.4125 0.845991 20 3.13349C17.135 2.35702 14.115 2.35702 11.25 3.13349C7.8375 0.845991 6.3625 1.28349 6.3625 1.28349C5.72047 2.78143 5.68018 4.46912 6.25 5.99599C5.03766 7.26937 4.36565 8.96282 4.375 10.721C4.375 17.496 8.5 18.9835 12.425 19.471C12.0137 19.896 11.6966 20.4027 11.4941 20.9584C11.2917 21.514 11.2085 22.1061 11.25 22.696V27.5335M11.25 23.7835C5 25.6585 5 20.6585 2.5 20.0335L11.25 23.7835Z" stroke="#10D7E2" stroke-width="1.4" stroke-linecap="round" stroke-linejoin="round"/>
</svg>
