<svg width="60" height="60" viewBox="0 0 60 60" fill="none" xmlns="http://www.w3.org/2000/svg">
<path d="M6.4998 26.475L20.9498 12L25.1748 16.25C24.5748 18.375 25.5498 20.7 27.4998 21.825V35.675C25.9998 36.525 24.9998 38.15 24.9998 40C24.9998 41.3261 25.5266 42.5979 26.4643 43.5355C27.402 44.4732 28.6737 45 29.9998 45C31.3259 45 32.5977 44.4732 33.5353 43.5355C34.473 42.5979 34.9998 41.3261 34.9998 40C34.9998 38.15 33.9998 36.525 32.4998 35.675V23.525L37.6748 28.75C37.4998 29.125 37.4998 29.55 37.4998 30C37.4998 31.3261 38.0266 32.5979 38.9643 33.5355C39.902 34.4732 41.1737 35 42.4998 35C43.8259 35 45.0977 34.4732 46.0353 33.5355C46.973 32.5979 47.4998 31.3261 47.4998 30C47.4998 28.6739 46.973 27.4022 46.0353 26.4645C45.0977 25.5268 43.8259 25 42.4998 25C42.0498 25 41.6248 25 41.2498 25.175L34.8248 18.75C35.4748 16.425 34.2748 13.875 31.9498 12.9C30.8748 12.5 29.7498 12.4 28.7498 12.675L24.4998 8.45L26.4748 6.5C28.4248 4.525 31.5748 4.525 33.5248 6.5L53.4998 26.475C55.4748 28.425 55.4748 31.575 53.4998 33.525L33.5248 53.5C31.5748 55.475 28.4248 55.475 26.4748 53.5L6.4998 33.525C4.5248 31.575 4.5248 28.425 6.4998 26.475Z" fill="#00D2DF"/>
</svg>
