<svg width="60" height="44" viewBox="0 0 60 44" fill="none" xmlns="http://www.w3.org/2000/svg">
<path d="M51.6361 25.11C49.5398 25.1195 47.7236 25.5964 46.2002 26.3048C45.6423 25.2564 45.0795 24.3332 44.9844 23.6461C44.8743 22.8457 44.7468 22.3664 44.8793 21.4125C45.0119 20.4586 45.5973 19.1081 45.5898 19.0066C45.5823 18.905 45.4597 18.4186 44.249 18.4116C43.0382 18.4045 42.005 18.6311 41.8825 18.9334C41.7599 19.2356 41.5272 19.9132 41.3822 20.6216C41.1695 21.6557 38.9681 25.3485 37.7174 27.2799C37.3071 26.5267 36.9594 25.8609 36.8868 25.3367C36.7768 24.5363 36.6492 24.057 36.7818 23.1031C36.9144 22.1492 37.4997 20.7986 37.4922 20.6971C37.4847 20.5956 37.3621 20.1092 36.1514 20.1021C34.9406 20.095 33.9075 20.3217 33.7849 20.6239C33.6623 20.9261 33.5322 21.6298 33.2846 22.3121C33.0369 22.9945 30.1076 29.1523 29.3421 30.7484C28.9519 31.5606 28.6117 32.2146 28.3715 32.6609L28.369 32.6585C28.369 32.6585 28.354 32.6892 28.329 32.7388C28.1239 33.1189 28.0013 33.3291 28.0013 33.3291C28.0013 33.3291 28.0038 33.3314 28.0038 33.3361C27.8412 33.6148 27.6661 33.8745 27.5785 33.8745C27.5185 33.8745 27.3959 33.1331 27.606 32.1131C28.0413 29.9763 29.0895 26.6448 29.077 26.5314C29.0719 26.4724 29.2721 25.8916 28.394 25.5893C27.541 25.2942 27.2358 25.7853 27.1582 25.7877C27.0832 25.79 27.0257 25.9624 27.0257 25.9624C27.0257 25.9624 27.9763 22.2153 25.212 22.2153C23.4834 22.2153 21.0894 24.0003 19.9087 25.6177C19.1632 26.0002 17.5697 26.8218 15.8812 27.6978C15.2308 28.0354 14.5704 28.3778 13.94 28.706C13.8974 28.6611 13.8549 28.6163 13.8099 28.5714C10.4578 25.195 4.25891 22.8079 4.52158 18.2699C4.61664 16.6195 5.22452 12.275 16.429 7.00503C25.6073 2.68892 32.9569 3.87656 34.2252 6.50919C36.0388 10.2704 30.2977 17.2617 20.7667 18.2699C17.1345 18.6548 15.2233 17.3254 14.748 16.832C14.2477 16.3102 14.1726 16.2866 13.985 16.3857C13.6798 16.5439 13.8724 17.0043 13.985 17.2782C14.2702 17.9771 15.4384 19.2167 17.4297 19.8329C19.1808 20.376 23.4459 20.6735 28.6017 18.7917C34.3778 16.6832 38.8881 10.8182 37.5623 5.91419C36.2139 0.927526 27.4559 -0.711085 19.1632 2.06794C14.2352 3.71364 8.89431 6.31086 5.05441 9.70142C0.489052 13.7318 -0.241405 17.2428 0.0587828 18.7091C1.12445 23.9177 8.73171 27.3106 11.7786 29.8252C11.6285 29.9031 11.4884 29.9763 11.3584 30.0448C9.8299 30.7578 4.03127 33.6218 2.58036 36.6488C0.934331 40.0818 2.84303 42.5445 4.10382 42.8774C8.01626 43.9045 12.0313 42.0557 14.1876 39.0193C16.344 35.9829 16.0813 32.0281 15.0907 30.2242C15.0782 30.2029 15.0657 30.1793 15.0532 30.1581C15.4484 29.9385 15.8487 29.7142 16.2489 29.4923C17.0269 29.0625 17.7899 28.6588 18.4503 28.3188C18.0801 29.2774 17.8074 30.4249 17.6673 32.0848C17.5047 34.0303 18.3527 36.5496 19.4584 37.5413C19.9462 37.9781 20.5316 37.9875 20.9043 37.9875C22.1926 37.9875 22.7805 36.977 23.4284 35.7799C24.2214 34.3113 24.9268 32.6042 24.9268 32.6042C24.9268 32.6042 24.0438 37.2202 26.4528 37.2202C27.3309 37.2202 28.2139 36.1459 28.6067 35.5981C28.6067 35.6052 28.6092 35.6075 28.6092 35.6075C28.6092 35.6075 28.6317 35.5721 28.6767 35.5013C28.7668 35.3691 28.8193 35.2864 28.8193 35.2864C28.8193 35.2864 28.8218 35.277 28.8243 35.2628C29.177 34.6843 29.96 33.3668 31.1332 31.1923C32.6492 28.3825 34.1026 24.8645 34.1026 24.8645C34.1026 24.8645 34.2377 25.7239 34.6805 27.1477C34.9406 27.9835 35.496 28.9091 35.9312 29.7968C35.5785 30.2573 35.3634 30.5217 35.3634 30.5217C35.3634 30.5217 35.3659 30.5264 35.3684 30.5359C35.0882 30.8877 34.773 31.2678 34.4428 31.6385C33.2471 32.9843 31.8212 34.5191 31.631 34.9629C31.4059 35.4848 31.4584 35.8696 31.8937 36.1789C32.2114 36.4056 32.7768 36.4386 33.3671 36.4032C34.4428 36.3348 35.1983 36.0821 35.5735 35.931C36.1564 35.7374 36.8343 35.4304 37.4697 34.9889C38.6429 34.1743 39.3509 33.0079 39.2833 31.4661C39.2458 30.6161 38.9581 29.7732 38.5954 28.9775C38.703 28.8335 38.808 28.6871 38.9156 28.5384C40.7668 25.986 42.2027 23.1786 42.2027 23.1786C42.2027 23.1786 42.3378 24.0381 42.7805 25.4618C43.0057 26.182 43.4459 26.9682 43.8462 27.7379C42.1051 29.072 41.0269 30.6232 40.6517 31.6409C39.9588 33.5227 40.5016 34.375 41.5197 34.5686C41.98 34.656 42.6329 34.4577 43.1207 34.2617C43.7311 34.0704 44.4616 33.7541 45.147 33.2795C46.3202 32.4649 47.4485 31.3245 47.3809 29.7803C47.3509 29.0767 47.1483 28.3802 46.8731 27.7096C48.349 27.1288 50.2577 26.8077 52.6892 27.0745C57.9075 27.6506 58.9306 30.7248 58.7355 32.0116C58.5404 33.2984 57.4447 34.0067 57.0795 34.2192C56.7143 34.4317 56.6017 34.5073 56.6317 34.6654C56.6767 34.8968 56.8443 34.8874 57.157 34.8378C57.5873 34.7693 59.8962 33.7918 59.9963 31.4142C60.1214 28.3943 57.0595 25.0817 51.6361 25.11ZM11.4134 37.9072C9.68481 39.6875 7.2708 40.3604 6.23515 39.7938C5.11695 39.1823 5.55973 36.5614 7.68106 34.6725C8.97437 33.5227 10.6429 32.4625 11.7511 31.8085C12.0038 31.6645 12.374 31.4543 12.8243 31.2017C12.8993 31.1616 12.9418 31.1403 12.9418 31.1403L12.9393 31.1379C13.0269 31.0884 13.1145 31.0388 13.207 30.9868C13.9775 33.6738 13.227 36.0396 11.4134 37.9072ZM24.0063 29.8275C23.4034 31.2135 22.1451 34.7575 21.3771 34.5663C20.7192 34.4034 20.319 31.7093 21.2445 29.0578C21.7123 27.7238 22.708 26.1277 23.2958 25.5091C24.2389 24.5127 25.2771 24.1868 25.5297 24.5906C25.8524 25.1077 24.384 28.961 24.0063 29.8275ZM34.4078 34.5143C34.1526 34.6395 33.9175 34.7198 33.8099 34.6584C33.7299 34.6135 33.915 34.4482 33.915 34.4482C33.915 34.4482 35.2158 33.126 35.7286 32.5263C36.0263 32.1768 36.3715 31.7613 36.7493 31.2961C36.7518 31.3434 36.7543 31.3882 36.7543 31.4331C36.7518 33.015 35.1307 34.0846 34.4078 34.5143ZM42.4228 32.7884C42.2327 32.6609 42.2652 32.2477 42.8906 30.9609C43.1358 30.4556 43.6961 29.6056 44.6717 28.791C44.7843 29.1263 44.8543 29.445 44.8518 29.7449C44.8393 31.7377 43.3334 32.4814 42.4228 32.7884Z" fill="#00D2DF"/>
</svg>
